<?xml version="1.0" encoding="utf-8"?>
<!-- Generator: Adobe Illustrator 25.2.3, SVG Export Plug-In . SVG Version: 6.00 Build 0)  -->
<svg version="1.1" id="Layer_1" xmlns="http://www.w3.org/2000/svg" xmlns:xlink="http://www.w3.org/1999/xlink" x="0px" y="0px"
	 viewBox="0 0 132 132" style="enable-background:new 0 0 132 132;" xml:space="preserve">
<style type="text/css">
	.st0{fill-rule:evenodd;clip-rule:evenodd;fill:#E30613;}
</style>
<path class="st0" d="M129.8,31.5l-13.7,69c-0.9,4.4-5.4,8-10,8H19.9l29.9-17.3l0.6-0.4c8.4,5,19.1,5.4,28.1,0.1
	c8.9-5.2,14-14.5,13.9-24.2L73.1,77.9l-13.9-8v-16l19.3-11.2c-2-1.2-4.2-2.1-6.4-2.7l-0.7-0.2c-6.8-1.7-14.2-0.9-20.8,2.9
	c-9.4,5.4-14.4,15.5-13.8,25.6l-0.1,0.1L2,88.5l11.3-57c0.9-4.4,5.4-8,10-8H123C127.6,23.5,130.7,27.1,129.8,31.5z"/>
</svg>
