<?xml version="1.0" encoding="utf-8"?>
<!-- Generator: Adobe Illustrator 25.2.3, SVG Export Plug-In . SVG Version: 6.00 Build 0)  -->
<svg version="1.1" id="Layer_1" xmlns="http://www.w3.org/2000/svg" xmlns:xlink="http://www.w3.org/1999/xlink" x="0px" y="0px"
	 viewBox="0 0 480.7 319.2" style="enable-background:new 0 0 480.7 319.2;" xml:space="preserve">
<style type="text/css">
	.st0{fill-rule:evenodd;clip-rule:evenodd;fill:#E30613;}
</style>
<path class="st0" d="M480.1,30.1l-51.3,259c-3.3,16.6-20.2,30.1-37.4,30.1H67.2l112.3-64.9l2.2-1.4c31.5,18.6,71.8,20.1,105.7,0.5
	c33.6-19.4,52.4-54.6,52.3-90.8L267,204.4l-52.1-30v-60.1l72.6-42c-7.6-4.4-15.7-7.8-24.1-10.1l-2.7-0.7
	c-25.5-6.5-53.4-3.4-78.1,10.9c-35.3,20.3-54.1,58.2-52,96.3l-0.4,0.3L0,244L42.4,30.1C45.7,13.5,62.6,0,79.8,0h374.8
	C471.9,0,483.4,13.5,480.1,30.1z"/>
</svg>
